HIERARCHY
ROOT Hips
{
     OFFSET -101.56600 96.65470 88.92410
     CHANNELS 6 Xposition Yposition Zposition Zrotation Xrotation Yrotation
     JOINT Spine
     {
          OFFSET -0.00000 11.89050 -0.00000
          CHANNELS 3 Zrotation Xrotation Yrotation
          JOINT Spine1
          {
               OFFSET -0.00000 25.65740 0.12766
               CHANNELS 3 Zrotation Xrotation Yrotation
               JOINT HEad
               {
                    OFFSET -0.00000 8.73416 0.01134
                    CHANNELS 3 Zrotation Xrotation Yrotation
                    End Site
                    {
                         OFFSET -0.29000 12.77420 2.51395
                    }
               }
               JOINT LeftShoulder1
               {
                    OFFSET 8.99000 -0.36225 -0.22000
                    CHANNELS 3 Zrotation Xrotation Yrotation
                    JOINT LeftArm
                    {
                         OFFSET 10.28270 -0.00338 0.32212
                         CHANNELS 3 Zrotation Xrotation Yrotation
                         JOINT LeftForeArm
                         {
                              OFFSET 32.76690 0.09914 -1.42434
                              CHANNELS 3 Zrotation Xrotation Yrotation
                              JOINT LeftHand
                              {
                                   OFFSET 27.56430 0.08536 1.02216
                                   CHANNELS 3 Zrotation Xrotation Yrotation
                                   End Site
                                   {
                                        OFFSET 16.74430 -0.60000 1.50291
                                   }
                              }
                         }
                    }
               }
               JOINT RightShoulder
               {
                    OFFSET -8.99000 -0.36225 -0.22000
                    CHANNELS 3 Zrotation Xrotation Yrotation
                    JOINT RightArm
                    {
                         OFFSET -10.28270 -0.00338 0.32212
                         CHANNELS 3 Zrotation Xrotation Yrotation
                         JOINT RightForeArm
                         {
                              OFFSET -32.89710 0.09914 -1.42434
                              CHANNELS 3 Zrotation Xrotation Yrotation
                              JOINT RightHand
                              {
                                   OFFSET -27.49210 0.08536 1.02216
                                   CHANNELS 3 Zrotation Xrotation Yrotation
                                   End Site
                                   {
                                        OFFSET -16.63120 -0.60000 1.50291
                                   }
                              }
                         }
                    }
               }
          }
     }
     JOINT LeftUpLeg
     {
          OFFSET 8.94580 -8.66707 0.10165
          CHANNELS 3 Zrotation Xrotation Yrotation
          JOINT LeftLeg
          {
               OFFSET 0.00000 -44.42270 1.37270
               CHANNELS 3 Zrotation Xrotation Yrotation
               JOINT LeftFoot
               {
                    OFFSET -0.25355 -42.09240 -1.46059
                    CHANNELS 3 Zrotation Xrotation Yrotation
                    JOINT LeftToes
                    {
                         OFFSET -0.04000 -4.41509 8.49910
                         CHANNELS 3 Zrotation Xrotation Yrotation
                         End Site
                         {
                              OFFSET 0.08000 -0.04745 9.77979
                         }
                    }
               }
          }
     }
     JOINT RightUpLeg
     {
          OFFSET -8.94580 -8.66707 0.10165
          CHANNELS 3 Zrotation Xrotation Yrotation
          JOINT RightLeg
          {
               OFFSET 0.00000 -44.42270 1.37270
               CHANNELS 3 Zrotation Xrotation Yrotation
               JOINT RightFoot
               {
                    OFFSET 0.25355 -42.09240 -1.46059
                    CHANNELS 3 Zrotation Xrotation Yrotation
                    JOINT RightToes
                    {
                         OFFSET 0.04000 -4.41509 8.49910
                         CHANNELS 3 Zrotation Xrotation Yrotation
                         End Site
                         {
                              OFFSET -0.08000 -0.13745 9.77979
                         }
                    }
               }
          }
     }
}
MOTION
Frames: 8
Frame Time: 0.01667
-91.70360 88.69590 79.99230 -5.20611 1.19608 96.79070 -0.14841 9.62171 4.80238 -0.74944 19.21830 9.58492 -7.56588 -24.52110 23.21250 -0.00000 -0.00000 0.00000 -50.92970 4.54762 9.93602 -18.87480 26.42320 -30.36100 5.55594 9.67997 -0.87718 11.54710 1.00631 4.17022 59.28710 -10.53310 66.66140 16.62010 37.55910 91.24450 -5.55712 9.68432 0.87760 17.39940 -45.03280 16.51710 0.58443 57.26820 -1.76760 -12.77290 -16.89350 -0.96838 0.89797 -21.26390 -7.46289 -15.53010 3.63867 -6.54035 5.20583 33.45850 -4.12982 2.86769 -28.66070 0.23428 -14.69050 -18.06580 3.36241 
-89.02000 88.89680 78.41580 -6.83372 0.62415 97.58520 -0.65269 8.84470 5.04873 -1.36660 17.60240 9.99659 -4.79552 -23.57430 22.27600 -0.00000 -0.00000 0.00000 -48.50610 3.76706 12.07530 -18.49900 26.98730 -36.22060 5.55594 9.67997 -0.87718 11.21640 0.99796 4.23488 59.12130 -13.24260 62.05490 20.15380 41.74150 93.10090 -5.55712 9.68432 0.87760 17.47420 -44.11220 17.03810 -2.30830 56.69840 1.08638 -11.42670 -18.04550 -0.96893 0.89552 -21.21620 -7.35497 -14.96110 5.51085 -5.42848 4.48502 29.52340 -5.16116 5.65923 -26.86890 0.68633 -13.88050 -17.14350 3.02517 
-86.13060 89.11480 76.71030 -8.57483 0.06842 98.88420 -1.27818 7.99919 5.14468 -1.93257 15.78660 10.16510 -1.96266 -22.13520 21.19110 -0.00000 -0.00000 0.00000 -46.75940 3.67210 11.86450 -17.59270 26.76840 -42.38510 5.55594 9.67997 -0.87718 11.86860 1.06595 4.45655 54.06770 -14.14280 55.11860 21.36970 42.50070 95.27780 -5.55712 9.68432 0.87760 16.63900 -43.06790 17.22820 -4.18360 56.23430 2.75556 -9.09573 -20.66060 -0.95233 0.92600 -18.59310 -6.27491 -14.29750 6.90951 -3.90540 3.76301 26.63460 -7.45521 8.25569 -24.00040 0.93840 -13.04060 -16.44830 1.65473 
-83.12760 89.35080 74.86260 -10.26860 -0.55124 100.87000 -1.86259 7.13598 4.97121 -2.31519 13.92650 9.80254 0.55876 -20.53790 20.18800 -0.00000 -0.00000 0.00000 -45.81060 3.80569 8.84267 -16.45900 25.92530 -47.95180 5.55594 9.67997 -0.87718 13.46250 1.21429 4.82025 46.48020 -13.23910 46.28380 19.99550 41.27860 97.63960 -5.55712 9.68432 0.87760 14.84210 -42.07430 17.16440 -4.21881 55.89500 2.16417 -6.05665 -24.67180 -0.79601 0.86305 -13.20210 -4.41086 -13.53910 7.41925 -2.15806 3.28265 25.91350 -10.68320 10.50040 -20.36400 0.94266 -11.75420 -15.51240 -0.67592 
-80.14560 89.63390 72.91950 -11.73170 -1.21268 103.71500 -2.35273 6.36876 4.41294 -2.53832 12.27180 8.69846 2.60816 -19.27170 19.48810 -0.00000 -0.00000 0.00000 -45.60260 3.58340 2.87186 -15.37090 24.74580 -52.38900 5.55594 9.67997 -0.87718 15.79630 1.43798 5.28133 38.26320 -10.01820 36.65790 16.71150 38.14950 99.24830 -5.55712 9.68432 0.87760 12.14400 -41.17220 16.74490 -2.29566 55.43860 -0.87912 -2.92530 -28.73350 -0.39908 0.62058 -6.98694 -2.57782 -12.72380 6.72121 -0.55032 3.38883 28.20140 -13.92540 12.16090 -16.44060 0.72435 -9.39522 -13.58760 -3.50933 
-77.29990 89.92970 70.97770 -12.77980 -1.74805 107.46900 -2.82203 5.82976 3.46754 -2.83177 11.09270 6.86069 4.39301 -18.77990 19.10410 -0.00000 -0.00000 0.00000 -46.03230 2.65788 -5.88203 -14.49330 23.52710 -55.58540 5.55594 9.67997 -0.87718 18.63480 1.72685 5.78948 31.23380 -5.42300 27.18110 13.20320 34.11120 98.77430 -5.55712 9.68432 0.87760 8.78146 -40.21340 15.67960 0.54545 54.69830 -5.22100 -0.16870 -31.30210 0.14469 0.40109 -3.10009 -1.58785 -11.97580 4.82434 0.47982 4.38544 33.64110 -15.85960 12.95430 -12.75570 0.38159 -5.83102 -10.37340 -5.97105 
-74.65800 90.12110 69.15620 -13.32880 -1.89006 112.02000 -3.47478 5.62530 2.23883 -3.54998 10.59010 4.52555 6.43002 -19.21640 18.79880 -0.00000 -0.00000 0.00000 -46.97840 1.20016 -16.96370 -13.88630 22.51100 -57.69800 5.55594 9.67997 -0.87718 21.86450 2.08395 6.34173 26.07890 -0.91878 18.13870 10.77680 30.34960 95.68060 -5.55712 9.68432 0.87760 5.07152 -38.95690 13.83260 2.96576 53.84690 -9.45260 2.34646 -32.04010 0.71333 0.38584 -2.82852 -1.53094 -11.43650 2.04823 0.53623 6.23006 41.67100 -15.40770 12.80470 -9.98520 0.07670 -1.96363 -6.45044 -7.11518 
-72.14910 90.12150 67.49000 -13.48970 -1.42655 116.99100 -4.63025 5.80660 1.00345 -4.97383 10.84450 2.06598 9.23241 -20.44910 18.24340 -0.00000 -0.00000 0.00000 -48.19930 -0.05956 -29.71440 -13.52620 21.79740 -58.93160 5.55594 9.67997 -0.87718 25.47760 2.53522 6.99100 22.66220 2.64989 9.46889 9.76932 27.36290 90.33090 -5.55712 9.68432 0.87760 1.29092 -37.12740 11.53790 4.58917 53.12270 -13.16580 4.93912 -31.96230 1.29197 0.45107 -4.44960 -1.75377 -11.24200 -1.16366 -0.51063 8.47578 51.25210 -12.49560 12.13030 -9.23173 -0.01341 1.52006 -2.23687 -6.80209 
